<?xml version="1.0" encoding="iso-8859-1"?>
<!-- Generator: Adobe Illustrator 19.0.0, SVG Export Plug-In . SVG Version: 6.00 Build 0)  -->
<svg version="1.1" id="Layer_1" xmlns="http://www.w3.org/2000/svg" xmlns:xlink="http://www.w3.org/1999/xlink" x="0px" y="0px"
	 viewBox="0 0 512 512" style="enable-background:new 0 0 512 512;" xml:space="preserve">
<g>
	<g>
		<g>
			<path d="M264.533,341.333H281.6c4.719,0,8.533-3.823,8.533-8.533c0-4.71-3.814-8.533-8.533-8.533h-17.067
				c-4.719,0-8.533,3.823-8.533,8.533C256,337.51,259.814,341.333,264.533,341.333z"/>
			<path d="M273.067,460.8c0-9.412-7.654-17.067-17.067-17.067c-9.412,0-17.067,7.654-17.067,17.067
				c0,9.412,7.654,17.067,17.067,17.067C265.412,477.867,273.067,470.212,273.067,460.8z"/>
			<path d="M503.467,392.533h-204.8c-4.719,0-8.533,3.823-8.533,8.533v8.533h-68.267v-8.533c0-4.71-3.814-8.533-8.533-8.533H42.667
				c-4.719,0-8.533,3.823-8.533,8.533s3.814,8.533,8.533,8.533H204.8c0,9.412,7.654,17.067,17.067,17.067h68.267
				c9.412,0,17.067-7.654,17.067-17.067h187.733v59.733c0,14.114-11.486,25.6-25.6,25.6H42.667c-14.114,0-25.6-11.486-25.6-25.6
				v-307.2c0-15.548,10.052-25.6,25.6-25.6H76.8c4.719,0,8.533-3.823,8.533-8.533s-3.814-8.533-8.533-8.533H42.667
				C17.545,119.467,0,137.011,0,162.133v307.2C0,492.86,19.14,512,42.667,512h426.667C492.86,512,512,492.86,512,469.333v-68.267
				C512,396.356,508.186,392.533,503.467,392.533z"/>
			<path d="M435.2,290.133h-17.067c-4.719,0-8.533,3.823-8.533,8.533s3.814,8.533,8.533,8.533H435.2
				c4.719,0,8.533-3.823,8.533-8.533S439.919,290.133,435.2,290.133z"/>
			<path d="M435.2,256h-17.067c-4.719,0-8.533,3.823-8.533,8.533c0,4.71,3.814,8.533,8.533,8.533H435.2
				c4.719,0,8.533-3.823,8.533-8.533C443.733,259.823,439.919,256,435.2,256z"/>
			<path d="M435.2,324.267h-17.067c-4.719,0-8.533,3.823-8.533,8.533c0,4.71,3.814,8.533,8.533,8.533H435.2
				c4.719,0,8.533-3.823,8.533-8.533C443.733,328.09,439.919,324.267,435.2,324.267z"/>
			<path d="M110.933,273.067h34.133c4.719,0,8.533-3.823,8.533-8.533c0-4.71-3.814-8.533-8.533-8.533h-34.133
				c-4.719,0-8.533,3.823-8.533,8.533C102.4,269.244,106.214,273.067,110.933,273.067z"/>
			<path d="M179.2,221.867H76.8c-4.719,0-8.533,3.823-8.533,8.533v93.867h-8.533c-4.719,0-8.533,3.823-8.533,8.533
				c0,4.71,3.814,8.533,8.533,8.533h136.533c4.719,0,8.533-3.823,8.533-8.533c0-4.71-3.814-8.533-8.533-8.533h-8.533V230.4
				C187.733,225.69,183.919,221.867,179.2,221.867z M170.667,324.267H85.333v-85.333h85.333V324.267z"/>
			<path d="M59.733,102.4H102.4v59.733c0,4.71,3.814,8.533,8.533,8.533s8.533-3.823,8.533-8.533V93.867
				c0-4.71-3.814-8.533-8.533-8.533H68.267V17.067h119.467v68.267h-42.667c-4.719,0-8.533,3.823-8.533,8.533v68.267
				c0,4.71,3.814,8.533,8.533,8.533s8.533-3.823,8.533-8.533V102.4h42.667c4.719,0,8.533-3.823,8.533-8.533V8.533
				c0-4.71-3.814-8.533-8.533-8.533H59.733C55.014,0,51.2,3.823,51.2,8.533v85.333C51.2,98.577,55.014,102.4,59.733,102.4z"/>
			<path d="M110.933,307.2h34.133c4.719,0,8.533-3.823,8.533-8.533s-3.814-8.533-8.533-8.533h-34.133
				c-4.719,0-8.533,3.823-8.533,8.533S106.214,307.2,110.933,307.2z"/>
			<path d="M85.333,42.667v17.067c0,4.71,3.814,8.533,8.533,8.533c4.719,0,8.533-3.823,8.533-8.533V42.667
				c0-4.71-3.814-8.533-8.533-8.533C89.148,34.133,85.333,37.956,85.333,42.667z"/>
			<path d="M332.8,324.267h-17.067c-4.719,0-8.533,3.823-8.533,8.533c0,4.71,3.814,8.533,8.533,8.533H332.8
				c4.719,0,8.533-3.823,8.533-8.533C341.333,328.09,337.519,324.267,332.8,324.267z"/>
			<path d="M332.8,256h-17.067c-4.719,0-8.533,3.823-8.533,8.533c0,4.71,3.814,8.533,8.533,8.533H332.8
				c4.719,0,8.533-3.823,8.533-8.533C341.333,259.823,337.519,256,332.8,256z"/>
			<path d="M469.333,119.467H460.8v-25.6c0-4.71-3.814-8.533-8.533-8.533h-204.8c-4.719,0-8.533,3.823-8.533,8.533v25.6H179.2
				c-4.719,0-8.533,3.823-8.533,8.533s3.814,8.533,8.533,8.533h68.267c4.719,0,8.533-3.823,8.533-8.533v-25.6h187.733V128
				c0,4.71,3.814,8.533,8.533,8.533h17.067c15.795,0,25.6,9.805,25.6,25.6v204.8c0,4.71,3.814,8.533,8.533,8.533
				c4.719,0,8.533-3.823,8.533-8.533v-204.8C512,136.61,494.848,119.467,469.333,119.467z"/>
			<path d="M264.533,307.2H281.6c4.719,0,8.533-3.823,8.533-8.533s-3.814-8.533-8.533-8.533h-17.067
				c-4.719,0-8.533,3.823-8.533,8.533S259.814,307.2,264.533,307.2z"/>
			<path d="M332.8,290.133h-17.067c-4.719,0-8.533,3.823-8.533,8.533s3.814,8.533,8.533,8.533H332.8
				c4.719,0,8.533-3.823,8.533-8.533S337.519,290.133,332.8,290.133z"/>
			<path d="M256,264.533c0,4.71,3.814,8.533,8.533,8.533H281.6c4.719,0,8.533-3.823,8.533-8.533c0-4.71-3.814-8.533-8.533-8.533
				h-17.067C259.814,256,256,259.823,256,264.533z"/>
			<path d="M384,290.133h-17.067c-4.719,0-8.533,3.823-8.533,8.533s3.814,8.533,8.533,8.533H384c4.719,0,8.533-3.823,8.533-8.533
				S388.719,290.133,384,290.133z"/>
			<path d="M384,256h-17.067c-4.719,0-8.533,3.823-8.533,8.533c0,4.71,3.814,8.533,8.533,8.533H384c4.719,0,8.533-3.823,8.533-8.533
				C392.533,259.823,388.719,256,384,256z"/>
			<path d="M418.133,119.467H281.6c-4.719,0-8.533,3.823-8.533,8.533v68.267c0,4.71,3.814,8.533,8.533,8.533h136.533
				c4.719,0,8.533-3.823,8.533-8.533V128C426.667,123.29,422.852,119.467,418.133,119.467z M409.6,187.733H290.133v-51.2H409.6
				V187.733z"/>
			<path d="M384,324.267h-17.067c-4.719,0-8.533,3.823-8.533,8.533c0,4.71,3.814,8.533,8.533,8.533H384
				c4.719,0,8.533-3.823,8.533-8.533C392.533,328.09,388.719,324.267,384,324.267z"/>
		</g>
	</g>
</g>
<g>
</g>
<g>
</g>
<g>
</g>
<g>
</g>
<g>
</g>
<g>
</g>
<g>
</g>
<g>
</g>
<g>
</g>
<g>
</g>
<g>
</g>
<g>
</g>
<g>
</g>
<g>
</g>
<g>
</g>
</svg>
